<mxfile host="app.diagrams.net" agent="Mozilla/5.0 (Macintosh; Intel Mac OS X 10_15_7) AppleWebKit/537.36 (KHTML, like Gecko) Chrome/134.0.0.0 Safari/537.36" version="26.1.3">
  <diagram name="SmartTax Icon Architecture" id="icon_architecture">
    <mxGraphModel dx="1004" dy="673" grid="1" gridSize="10" guides="1" tooltips="1" connect="1" arrows="1" fold="1" page="1" pageScale="1" pageWidth="800" pageHeight="700" math="0" shadow="0">
      <root>
        <mxCell id="0" />
        <mxCell id="1" parent="0" />
        <mxCell id="gqfAAeyBDF066Aqk3Bnu-152" value="" style="rounded=0;whiteSpace=wrap;html=1;" vertex="1" parent="1">
          <mxGeometry width="800" height="700" as="geometry" />
        </mxCell>
        <mxCell id="gqfAAeyBDF066Aqk3Bnu-146" value="" style="rounded=0;whiteSpace=wrap;html=1;" vertex="1" parent="1">
          <mxGeometry x="551" y="218" width="220" height="313" as="geometry" />
        </mxCell>
        <mxCell id="2" value="" style="shape=image;image=https://img.icons8.com/ios-filled/100/monitor--v1.png;" parent="1" vertex="1">
          <mxGeometry x="51" y="350" width="60" height="60" as="geometry" />
        </mxCell>
        <mxCell id="21" value="SmartTax Agent UI&lt;br&gt;(render.com)" style="text;html=1;strokeColor=none;fillColor=none;align=center;verticalAlign=top;" parent="1" vertex="1">
          <mxGeometry x="31" y="407" width="100" height="30" as="geometry" />
        </mxCell>
        <mxCell id="5" value="" style="shape=image;image=https://img.icons8.com/ios-filled/100/open-book--v2.png;" parent="1" vertex="1">
          <mxGeometry x="285" y="128" width="40" height="50" as="geometry" />
        </mxCell>
        <mxCell id="51" value="Knowledge Base" style="text;html=1;strokeColor=none;fillColor=none;align=center;verticalAlign=top;" parent="1" vertex="1">
          <mxGeometry x="260" y="102" width="100" height="30" as="geometry" />
        </mxCell>
        <mxCell id="9" value="" style="shape=image;image=https://img.icons8.com/color/96/google-drive--v1.png;" parent="1" vertex="1">
          <mxGeometry x="634" y="589" width="60" height="60" as="geometry" />
        </mxCell>
        <mxCell id="91" value="Google Drive&#xa;(Secured)" style="text;html=1;strokeColor=none;fillColor=none;align=center;verticalAlign=top;" parent="1" vertex="1">
          <mxGeometry x="614" y="636" width="100" height="40" as="geometry" />
        </mxCell>
        <mxCell id="92" value="" style="shape=image;image=https://img.icons8.com/ios-glyphs/30/lock--v1.png;" parent="1" vertex="1">
          <mxGeometry x="671" y="542" width="20" height="20" as="geometry" />
        </mxCell>
        <mxCell id="10" style="endArrow=block;edgeStyle=orthogonalEdgeStyle;entryX=0;entryY=0.5;entryDx=0;entryDy=0;" parent="1" source="2" target="gqfAAeyBDF066Aqk3Bnu-98" edge="1">
          <mxGeometry relative="1" as="geometry">
            <mxPoint x="181" y="237" as="targetPoint" />
          </mxGeometry>
        </mxCell>
        <mxCell id="gqfAAeyBDF066Aqk3Bnu-131" value="API" style="edgeLabel;html=1;align=center;verticalAlign=middle;resizable=0;points=[];" vertex="1" connectable="0" parent="10">
          <mxGeometry x="-0.1643" y="1" relative="1" as="geometry">
            <mxPoint x="1" y="-20" as="offset" />
          </mxGeometry>
        </mxCell>
        <mxCell id="11" style="endArrow=block;entryX=0;entryY=0.5;entryDx=0;entryDy=0;edgeStyle=orthogonalEdgeStyle;" parent="1" source="2" target="gqfAAeyBDF066Aqk3Bnu-104" edge="1">
          <mxGeometry relative="1" as="geometry" />
        </mxCell>
        <mxCell id="gqfAAeyBDF066Aqk3Bnu-132" value="API" style="edgeLabel;html=1;align=center;verticalAlign=middle;resizable=0;points=[];" vertex="1" connectable="0" parent="11">
          <mxGeometry x="0.0419" y="-1" relative="1" as="geometry">
            <mxPoint as="offset" />
          </mxGeometry>
        </mxCell>
        <mxCell id="gqfAAeyBDF066Aqk3Bnu-97" style="edgeStyle=orthogonalEdgeStyle;rounded=0;orthogonalLoop=1;jettySize=auto;html=1;" edge="1" parent="1" source="gqfAAeyBDF066Aqk3Bnu-93" target="21">
          <mxGeometry relative="1" as="geometry" />
        </mxCell>
        <mxCell id="gqfAAeyBDF066Aqk3Bnu-93" value="" style="verticalLabelPosition=bottom;sketch=0;html=1;fillColor=#A153A0;strokeColor=#ffffff;verticalAlign=top;align=center;points=[[0,0.5,0],[0.125,0.25,0],[0.25,0,0],[0.5,0,0],[0.75,0,0],[0.875,0.25,0],[1,0.5,0],[0.875,0.75,0],[0.75,1,0],[0.5,1,0],[0.125,0.75,0]];pointerEvents=1;shape=mxgraph.cisco_safe.compositeIcon;bgIcon=ellipse;resIcon=mxgraph.cisco_safe.design.user;" vertex="1" parent="1">
          <mxGeometry x="56" y="482" width="50" height="50" as="geometry" />
        </mxCell>
        <mxCell id="gqfAAeyBDF066Aqk3Bnu-96" style="edgeStyle=orthogonalEdgeStyle;rounded=0;orthogonalLoop=1;jettySize=auto;html=1;entryX=0.5;entryY=0;entryDx=0;entryDy=0;" edge="1" parent="1" source="gqfAAeyBDF066Aqk3Bnu-94" target="2">
          <mxGeometry relative="1" as="geometry" />
        </mxCell>
        <mxCell id="gqfAAeyBDF066Aqk3Bnu-94" value="" style="fillColor=#28A8E0;verticalLabelPosition=bottom;sketch=0;html=1;strokeColor=#ffffff;verticalAlign=top;align=center;points=[[0.145,0.145,0],[0.5,0,0],[0.855,0.145,0],[1,0.5,0],[0.855,0.855,0],[0.5,1,0],[0.145,0.855,0],[0,0.5,0]];pointerEvents=1;shape=mxgraph.cisco_safe.compositeIcon;bgIcon=ellipse;resIcon=mxgraph.cisco_safe.capability.user;" vertex="1" parent="1">
          <mxGeometry x="60" y="241" width="43" height="43" as="geometry" />
        </mxCell>
        <mxCell id="gqfAAeyBDF066Aqk3Bnu-101" value="" style="group" vertex="1" connectable="0" parent="1">
          <mxGeometry x="219" y="218" width="170" height="60" as="geometry" />
        </mxCell>
        <mxCell id="gqfAAeyBDF066Aqk3Bnu-98" value="" style="rounded=1;whiteSpace=wrap;html=1;strokeWidth=2;" vertex="1" parent="gqfAAeyBDF066Aqk3Bnu-101">
          <mxGeometry width="170" height="60" as="geometry" />
        </mxCell>
        <mxCell id="gqfAAeyBDF066Aqk3Bnu-92" value="" style="shape=image;html=1;verticalAlign=top;verticalLabelPosition=bottom;labelBackgroundColor=#ffffff;imageAspect=0;aspect=fixed;image=https://cdn0.iconfinder.com/data/icons/phosphor-light-vol-1/256/brain-light-128.png" vertex="1" parent="gqfAAeyBDF066Aqk3Bnu-101">
          <mxGeometry width="60" height="60" as="geometry" />
        </mxCell>
        <mxCell id="gqfAAeyBDF066Aqk3Bnu-99" value="&lt;span&gt;Individual&amp;nbsp;User&amp;nbsp;&lt;br&gt;Assistant&lt;br&gt;(Open AI)&lt;/span&gt;" style="text;html=1;align=center;verticalAlign=middle;whiteSpace=wrap;rounded=0;fontFamily=Verdana;fontStyle=0" vertex="1" parent="gqfAAeyBDF066Aqk3Bnu-101">
          <mxGeometry x="86" y="15" width="60" height="30" as="geometry" />
        </mxCell>
        <mxCell id="gqfAAeyBDF066Aqk3Bnu-102" value="" style="group" vertex="1" connectable="0" parent="1">
          <mxGeometry x="219" y="485" width="170" height="60" as="geometry" />
        </mxCell>
        <mxCell id="gqfAAeyBDF066Aqk3Bnu-103" value="" style="rounded=1;whiteSpace=wrap;html=1;strokeWidth=2;" vertex="1" parent="gqfAAeyBDF066Aqk3Bnu-102">
          <mxGeometry width="170" height="60" as="geometry" />
        </mxCell>
        <mxCell id="gqfAAeyBDF066Aqk3Bnu-104" value="" style="shape=image;html=1;verticalAlign=top;verticalLabelPosition=bottom;labelBackgroundColor=#ffffff;imageAspect=0;aspect=fixed;image=https://cdn0.iconfinder.com/data/icons/phosphor-light-vol-1/256/brain-light-128.png" vertex="1" parent="gqfAAeyBDF066Aqk3Bnu-102">
          <mxGeometry width="60" height="60" as="geometry" />
        </mxCell>
        <mxCell id="gqfAAeyBDF066Aqk3Bnu-105" value="&lt;span&gt;Tax Specialist&lt;br&gt;Assistant&lt;br&gt;(Open AI)&lt;/span&gt;" style="text;html=1;align=center;verticalAlign=middle;whiteSpace=wrap;rounded=0;fontFamily=Verdana;fontStyle=0" vertex="1" parent="gqfAAeyBDF066Aqk3Bnu-102">
          <mxGeometry x="64" y="15" width="100" height="30" as="geometry" />
        </mxCell>
        <mxCell id="gqfAAeyBDF066Aqk3Bnu-106" value="" style="edgeStyle=orthogonalEdgeStyle;rounded=0;orthogonalLoop=1;jettySize=auto;html=1;entryX=0.5;entryY=1;entryDx=0;entryDy=0;" edge="1" parent="1" target="5">
          <mxGeometry relative="1" as="geometry">
            <mxPoint x="305" y="218" as="sourcePoint" />
          </mxGeometry>
        </mxCell>
        <mxCell id="gqfAAeyBDF066Aqk3Bnu-107" value="" style="shape=image;image=https://img.icons8.com/ios-filled/100/open-book--v2.png;" vertex="1" parent="1">
          <mxGeometry x="285" y="599" width="40" height="50" as="geometry" />
        </mxCell>
        <mxCell id="gqfAAeyBDF066Aqk3Bnu-108" value="" style="edgeStyle=orthogonalEdgeStyle;rounded=0;orthogonalLoop=1;jettySize=auto;html=1;" edge="1" parent="1" target="gqfAAeyBDF066Aqk3Bnu-107">
          <mxGeometry relative="1" as="geometry">
            <mxPoint x="305" y="545" as="sourcePoint" />
          </mxGeometry>
        </mxCell>
        <mxCell id="gqfAAeyBDF066Aqk3Bnu-109" value="Knowledge Base" style="text;html=1;strokeColor=none;fillColor=none;align=center;verticalAlign=top;" vertex="1" parent="1">
          <mxGeometry x="255" y="636" width="100" height="30" as="geometry" />
        </mxCell>
        <mxCell id="gqfAAeyBDF066Aqk3Bnu-114" value="Individual User" style="text;html=1;strokeColor=none;fillColor=none;align=center;verticalAlign=top;" vertex="1" parent="1">
          <mxGeometry x="35" y="211" width="100" height="30" as="geometry" />
        </mxCell>
        <mxCell id="gqfAAeyBDF066Aqk3Bnu-115" value="Tax Specialist" style="text;html=1;strokeColor=none;fillColor=none;align=center;verticalAlign=top;" vertex="1" parent="1">
          <mxGeometry x="31.5" y="532" width="100" height="30" as="geometry" />
        </mxCell>
        <mxCell id="gqfAAeyBDF066Aqk3Bnu-117" value="" style="group" vertex="1" connectable="0" parent="1">
          <mxGeometry x="571" y="267" width="170" height="60" as="geometry" />
        </mxCell>
        <mxCell id="gqfAAeyBDF066Aqk3Bnu-111" value="" style="rounded=1;whiteSpace=wrap;html=1;strokeWidth=2;" vertex="1" parent="gqfAAeyBDF066Aqk3Bnu-117">
          <mxGeometry width="170" height="60" as="geometry" />
        </mxCell>
        <mxCell id="gqfAAeyBDF066Aqk3Bnu-113" value="SmartTax Work Flow API&lt;br&gt;(render.com)" style="text;html=1;align=center;verticalAlign=middle;whiteSpace=wrap;rounded=0;fontFamily=Verdana;fontStyle=0" vertex="1" parent="gqfAAeyBDF066Aqk3Bnu-117">
          <mxGeometry x="60" y="15" width="110" height="30" as="geometry" />
        </mxCell>
        <mxCell id="gqfAAeyBDF066Aqk3Bnu-116" value="" style="sketch=0;aspect=fixed;pointerEvents=1;shadow=0;dashed=0;html=1;strokeColor=none;labelPosition=center;verticalLabelPosition=bottom;verticalAlign=top;align=center;shape=mxgraph.azure.startup_task;fillColor=#0078D7;" vertex="1" parent="gqfAAeyBDF066Aqk3Bnu-117">
          <mxGeometry x="4" y="5" width="48" height="50" as="geometry" />
        </mxCell>
        <mxCell id="gqfAAeyBDF066Aqk3Bnu-118" value="" style="group" vertex="1" connectable="0" parent="1">
          <mxGeometry x="571" y="400" width="170" height="60" as="geometry" />
        </mxCell>
        <mxCell id="gqfAAeyBDF066Aqk3Bnu-119" value="" style="rounded=1;whiteSpace=wrap;html=1;strokeWidth=2;" vertex="1" parent="gqfAAeyBDF066Aqk3Bnu-118">
          <mxGeometry width="170" height="60" as="geometry" />
        </mxCell>
        <mxCell id="gqfAAeyBDF066Aqk3Bnu-120" value="PDF Generator API&lt;br&gt;(render.com)" style="text;html=1;align=center;verticalAlign=middle;whiteSpace=wrap;rounded=0;fontFamily=Verdana;fontStyle=0" vertex="1" parent="gqfAAeyBDF066Aqk3Bnu-118">
          <mxGeometry x="60" y="15" width="110" height="30" as="geometry" />
        </mxCell>
        <mxCell id="gqfAAeyBDF066Aqk3Bnu-121" value="" style="sketch=0;aspect=fixed;pointerEvents=1;shadow=0;dashed=0;html=1;strokeColor=none;labelPosition=center;verticalLabelPosition=bottom;verticalAlign=top;align=center;shape=mxgraph.azure.startup_task;fillColor=#0078D7;" vertex="1" parent="gqfAAeyBDF066Aqk3Bnu-118">
          <mxGeometry x="4" y="5" width="48" height="50" as="geometry" />
        </mxCell>
        <mxCell id="gqfAAeyBDF066Aqk3Bnu-123" value="" style="edgeStyle=orthogonalEdgeStyle;rounded=0;orthogonalLoop=1;jettySize=auto;html=1;exitX=0.547;exitY=1.017;exitDx=0;exitDy=0;exitPerimeter=0;" edge="1" parent="1" source="gqfAAeyBDF066Aqk3Bnu-119" target="9">
          <mxGeometry relative="1" as="geometry" />
        </mxCell>
        <mxCell id="gqfAAeyBDF066Aqk3Bnu-124" value="" style="shape=image;image=https://img.icons8.com/ios-glyphs/30/lock--v1.png;" vertex="1" parent="1">
          <mxGeometry x="83" y="307" width="20" height="20" as="geometry" />
        </mxCell>
        <mxCell id="gqfAAeyBDF066Aqk3Bnu-125" value="" style="shape=image;image=https://img.icons8.com/ios-glyphs/30/lock--v1.png;" vertex="1" parent="1">
          <mxGeometry x="83" y="451" width="20" height="20" as="geometry" />
        </mxCell>
        <mxCell id="gqfAAeyBDF066Aqk3Bnu-128" value="" style="edgeStyle=orthogonalEdgeStyle;rounded=0;orthogonalLoop=1;jettySize=auto;html=1;entryX=0;entryY=0.5;entryDx=0;entryDy=0;" edge="1" parent="1" source="gqfAAeyBDF066Aqk3Bnu-103" target="gqfAAeyBDF066Aqk3Bnu-146">
          <mxGeometry relative="1" as="geometry">
            <mxPoint x="541" y="401" as="targetPoint" />
          </mxGeometry>
        </mxCell>
        <mxCell id="gqfAAeyBDF066Aqk3Bnu-130" value="API" style="edgeLabel;html=1;align=center;verticalAlign=middle;resizable=0;points=[];" vertex="1" connectable="0" parent="gqfAAeyBDF066Aqk3Bnu-128">
          <mxGeometry x="0.1382" relative="1" as="geometry">
            <mxPoint x="-1" y="-10" as="offset" />
          </mxGeometry>
        </mxCell>
        <mxCell id="gqfAAeyBDF066Aqk3Bnu-134" value="gpt-4o-mini" style="text;html=1;strokeColor=none;fillColor=none;align=center;verticalAlign=top;" vertex="1" parent="1">
          <mxGeometry x="255" y="401" width="100" height="30" as="geometry" />
        </mxCell>
        <mxCell id="gqfAAeyBDF066Aqk3Bnu-135" value="" style="edgeStyle=orthogonalEdgeStyle;rounded=0;orthogonalLoop=1;jettySize=auto;html=1;" edge="1" parent="1" target="gqfAAeyBDF066Aqk3Bnu-153">
          <mxGeometry relative="1" as="geometry">
            <mxPoint x="305" y="278" as="sourcePoint" />
          </mxGeometry>
        </mxCell>
        <mxCell id="gqfAAeyBDF066Aqk3Bnu-137" value="powered by" style="edgeLabel;html=1;align=center;verticalAlign=middle;resizable=0;points=[];" vertex="1" connectable="0" parent="gqfAAeyBDF066Aqk3Bnu-135">
          <mxGeometry x="-0.1628" y="1" relative="1" as="geometry">
            <mxPoint as="offset" />
          </mxGeometry>
        </mxCell>
        <mxCell id="gqfAAeyBDF066Aqk3Bnu-136" value="" style="edgeStyle=orthogonalEdgeStyle;rounded=0;orthogonalLoop=1;jettySize=auto;html=1;exitX=0.5;exitY=0;exitDx=0;exitDy=0;" edge="1" parent="1" target="gqfAAeyBDF066Aqk3Bnu-134">
          <mxGeometry relative="1" as="geometry">
            <mxPoint x="305" y="485" as="sourcePoint" />
          </mxGeometry>
        </mxCell>
        <mxCell id="gqfAAeyBDF066Aqk3Bnu-138" value="powered by" style="edgeLabel;html=1;align=center;verticalAlign=middle;resizable=0;points=[];" vertex="1" connectable="0" parent="gqfAAeyBDF066Aqk3Bnu-136">
          <mxGeometry x="-0.2963" relative="1" as="geometry">
            <mxPoint y="-6" as="offset" />
          </mxGeometry>
        </mxCell>
        <mxCell id="gqfAAeyBDF066Aqk3Bnu-147" style="edgeStyle=orthogonalEdgeStyle;rounded=0;orthogonalLoop=1;jettySize=auto;html=1;entryX=0;entryY=0.5;entryDx=0;entryDy=0;" edge="1" parent="1" source="gqfAAeyBDF066Aqk3Bnu-98" target="gqfAAeyBDF066Aqk3Bnu-146">
          <mxGeometry relative="1" as="geometry" />
        </mxCell>
        <mxCell id="gqfAAeyBDF066Aqk3Bnu-148" value="API" style="edgeLabel;html=1;align=center;verticalAlign=middle;resizable=0;points=[];" vertex="1" connectable="0" parent="gqfAAeyBDF066Aqk3Bnu-147">
          <mxGeometry x="0.026" y="2" relative="1" as="geometry">
            <mxPoint as="offset" />
          </mxGeometry>
        </mxCell>
        <mxCell id="gqfAAeyBDF066Aqk3Bnu-149" value="SmartTax Agent - Current Architecture" style="text;html=1;strokeColor=none;fillColor=none;align=center;verticalAlign=top;fontStyle=1;fontSize=15;" vertex="1" parent="1">
          <mxGeometry x="346" y="38" width="100" height="30" as="geometry" />
        </mxCell>
        <mxCell id="gqfAAeyBDF066Aqk3Bnu-153" value="" style="shape=image;verticalLabelPosition=bottom;labelBackgroundColor=default;verticalAlign=top;aspect=fixed;imageAspect=0;image=data:image/png,iVBORw0KGgoAAAANSUhEUgAAAOEAAADhCAMAAAAJbSJIAAAAilBMVEX///8AAADq6ury8vKWlpaJiYnp6enu7u709PT7+/u/v7/l5eX8/PysrKzR0dGbm5tdXV3Z2dltbW3MzMzCwsLHx8dkZGTd3d10dHSioqJ6enq1tbVpaWk6OjpOTk4nJycUFBQ1NTVUVFSAgIBBQUEeHh6MjIwvLy8pKSlHR0cNDQ0aGhpQUFCfn59YwQkbAAAQXklEQVR4nNVd2ULqShDUg8omCCriETdE5bj9/+9dEIWku7qnZkG89UoSppKZ3qdnb29raAw7B1eDx/nT6/7+6/3d7eVhb3R0vL3/+1kMPwZP+xAvz6P2rkeXi1bnFJNb4/FjvOtBZmA0CNBbYfrR3PVIk9A4eKX4feLibNfDjcbRJU/vE/POrocchWYsvyXu/kccDxP4LfE43PXIOZzfJxJc4Op/oCNbnPw0cb5rAiF08vgtP+OuKfiYZRNcSJw/u2Zho3VTgOACo10TsTAuw2+Bv7umgjEKDvxt/vJwMbi9mQetnV+5GCfukAcnnW5rc3FzOJlNveuvd0fEgkPw5gS7D62Jo1kGPzz+IGwtcdB1bmtPbq37LlZXtMbDUWfS6/U6/fHRj1DBODeGOQ3bmmPLg7wc965e1Kc9nHR34TUPDX6cTxTthzz89ebFNtDEA5nQD+iac9XC/eGPWulzNIbLqMnkS2KIu58LDcBJFmtBtx7iOe6f/kyMB73+l1b4PomTBIr77z8wWRvgfy+TnhQKy2EMtv4dgZD4SHnOEK5mBnErPhpgjp4kPKZxncpvCV5qx6Ol/y7lCx7k8FvgIWHdk7hSf/Yc/5BORmTnG9vyKbVLGC9kxo/5/BaYbYHeAkqJvcQ+oZUSWoV43IbA0fZo7Hr4KMVvgfstWKvKv4tMP4yMtFsF09Pn3qQzOp/0Dmbvb4GLi6vGrvyHuOBDN2CovV0pT6nRP3Fv6hdkt4QSpDE3t/3I482HNefaXk6ybA6rLR8fk1rpufwO/fnWnpgGUFE7VQ4yQo6e/fP4nRDZi741W0uKGxlioF9f88Lj90xK/T6OP9+nkUGQBtsted/xs8fvNELfYLf5PYmNxvBDOhWkHHO9+Zu4ZdSGk+EwgY5AsweePKVuHbomWryPAN9XZoau3cNhox5xb8N1chNs9oVSRUZDTgBnrJ2JLxDywY1TXKQm1YBQjbaO1zhTEdrNAIM3d7x8zDTDGgETg5lQAH1vDYWWkB8STRzRF8C8SvGIu+/eEAOPbJmTe4lZbn2C/ooJiZ1ABYkvSf96t74XsEL0Wow1UPs+P18HuT7SU5nwg7IC53H3hwsQbKP7yHV3SuWz/6gnx+jWP9MgQdPebbuz+6pciEzl9574e6kSGeNe10d6KeqSK1lG+3JUJAXP+qZXffJaulBPhiTZleiK+TWgcFZBjioOCnJb4Uz+BSdOyWzJKbrXsWGut5H6k4kBOCgJNqmHlIVthZI+0mcR9TXvKCh5SsgxM11yJxINyC2YWjdzcnztZ93QJqtUamFb0FqDDyOZNQSrSsWpnJehUfOzLsg5LesJgi6GMc0elkL+KMgQZU4XIomriZF/TcolmSFo+JfjcMPdysoSc55kOOfEG/CzON0iswz+esCVht9UkhhyPtIYO6GPjH0gwqi+04rM5X9r4yyB4YyKErZtBXwZlo3CiXn1rkVRrEpuMJrhA+cjuX5WOH8uxIOXqkHGaNUPiGR4z2m10Z1LcGFOh54j7ER7XSAxUZMScQy52oVQLuoTt/5yFNFmOxkGVH3dDoliSJkwx2wVvLuehXFqhh6UEatGGcWQ0YF+LqoORybLVIMVAdLLQVpOhRn2pxEEXb0qVIDx1/p9KtVZlCHMRc3c+LFpGwmzBtu0x+p52pYsyRDlopb+f8t13Q7xBBQuAbZqlFcP8lXlGE6AG/ltow3dLSpwOQo1hyNd6lFAeIUZVgx9hyHkUFEubi4OpQKEkISejFqFSMuWYQjn4WnNI/DzqdfKexDmNPTzpSCF5muRWYpkid5l2XT3+8l/FrYKGrzShdD9LMCwg+p/oGToe3UNwq8SChGFyOQbwz559iyFPpLp6PJx1zBDVTCKbaRMhjAX5QUr/Pqiil8VZijflmE05zFEPlIoR+rb5WutIBiCdSgTmYaZm8MQ+UivRACOymGJMLQud5WT1KpLTWd4BEUjF0F1/eOVjy0EpQ7kSg1reeapDM1c1IxKQwVyyW3CphGG66P1V4kMPZlIxqncgpye1LF68r/JO0oydPXaYimRsUav7v1RyCMlvmTo36xxSWDo1+t9YsDV1ETsXVBiXMzif+afxDPkhvVMlWX4tVVVhN6OXX8QyxDF7u7/ovlG5m24rf9ajghJbsfuohg2oHhY3oM+LJl7o3YsamUndKptRkUxRBrwK0faRAm800BGZYVjokmMnhD139/sx0cx1KiYaDAIxQVYsfFQhVLnIiju5N/yGNaVEFKSZJD8zN/SpytORHbKKXTKYahiSNDQIYvBXL9KW6XCqHPmSjpDqPP+oPlG5Jr2/Fi5TjoK+eQI7lSGd5bdcoaSMtxWRruwUytXYbs7RXWJDL0yNuQ4kHV954ZfpbM4IlLq+KRJDAM5Uug4kHlHI0Cu1J24rixDQnTAKl2uvrYJQwB38rItfsNgbnMFON84vwoaObLPzfbWIb+/G803rs79aBp+O0K5OBUecQxjtvrgQDhXNITurK8NKq0RzzC25hokaMmiIVAqWk8Dn9EPjWIYW4hoGAtM0RAwcWpjE1abs/M8imHsbhhZM/INpqgYUKzOUxFLvPllDKnCcE2xtm1Q/GZr6B0xZIr7dTquqhNEbMDW0TtjSBhyyoqvChshbm3T+6cYIschZMgdK6uhIqOEtLVLin6KYRv6VUaVwjdUq4eK8SY1UQbDyhUZDBvGvm8/IqcCXJuPKOvZTPEcrhEuxhD78b4hJ4MbFXE6DY5cjX8JYHYWZIiLTj1DTs3TzacSERNz81A41VqSYWxSXFuom8CpbEJqzgUpr7y6sAIMjYSMGTxWht/mJ/GDWSmtwmOyTKQ0QxwgN7+AVDMb91QmiKzJDrZTnNauLc8QJmQss0t+xI0rLFMoZvsltK20ujC2wBAlZMy1KD/V+gdVmGhKrKFTcrcthjpWYSYA5RfYOKlSMDsuFFoY6+W4JYZ7eyJaZXobQhZuKp/UThIn2QXTul+h6q0xFL6DOcfEdRVXUGoedy8mzFT2tspQSHGTofxUm4+t9gz7cTIUxFtujto5Q6n4KopFZRD84AGsAH3vVqyeHTEUEqXiO6uce2jjN8xUVnTXjhiK2VUVmVM52mCXCb+z1Y4YihK3ar5Xd8gPByu9TOWOGEqzq/qbTsiFUwctO1O5I4Z70/qVVQMP7KQnylzMCtBdMRRFejWBCawVppLHOEQnI+adxVCwqPshoMaBakMCe0xk5C2yGIpUWj2/hzo+UO1lG6jjanruKYuhUHtiFsJSbGpBwZZsqfnDLIYiciilJayV5MrqkOZIzAFnMRQOlKrsgPUNA0pqwJKzpDx+SYZqHhlZvIySs0DmCNVilGSoRaVxuhE53+C+7Nh6mq2uQ7TT8gu36Xvr42qiMhkGS7ycBlFXVH8EWALE17VlMxTKWb9ct5iaa0MGS85U5siphc1iKK7U4Ri/2z3ZpwQacuH60iIMhZ2sJo/byGqJQXrJWahGuAxDoe/U70Sp+CG1HOHeAa/Ou2Js5DAUqUIdUaO6OHAlZ9CQs2r1H8eVEE8OQ+HI6xTMlGHItlbl91t0amG6HIYiQqbjFBTBfbr3Grdn5nMYhRhO6xcqQ8Ut+QDDCoLY9/SV1i3DUGbs1YXCqBu4PRA5nyOwd23+PeHLMBRKSG8eERd8+HX/5FYe7xmbt1SGochO6MoZYVV2Qr1Iua085p7squIpwlCqc13ZKIbyOYP8bTicXwVPEqw3YynCUH4O7bkJNf01BMMFWOGeqABFrUz+CQOwBEMZDn7QlwjJt34F7n7qUAXocApuUlZDCYbSVgSmiZiQla4F7n5qz4+H+gLcUIChKqQAwzIZmn3/vmD6VUjnw+ZkBRjKjB/RAaT+DtwT4p+gIYcMeSMgks9QxZiQqyeMfvmV/XMO1N/CfbKW8M1nKGU+rNgQsWu17dvvU1Xfkw39J3vzXTZDNV+gC4T0YR3+fuqKIcf1EirHUPdEhH+jbRoN6swYdK6Fb8jmMlSCEAs/ZZcihM/9GaNYVKCXcCZDbRjivxEespV4+uP6RCfIDA3uYcpjqK17IxAhLFe7bqgfd0QqERTIYqg3TVmlJNIqcIJOhfpWrpGTAwaGvRn2FDa29+oD5+BtwO0HrYwyliGoCbWbzwsd5vtG1Nnh5J7eajA+kqGuk/Emn5h7ZruhL1j7qde4I/dl1wzCOIbI73H+Vc7ooA/vn4RBJjpEJD6KIbKc3CNmxbVE0ZB9LiyXrNLrOYIhqlkOHOMhzFdnN+IaRp8q8rwVIJN5htj28FWv/ENqmMk98XGfEpah0R4rkB+TThZ5Uqx0dLN6zQD/AzAcGi55cO1L34GKFwpf6TRkoq1g2bdg+Yq12tgbWfV04aM05DSlj75e+1W5PZ/Q2hdhogPzGGRiuMrP4kvwzpfvdcBVbTjnWqJpxnYyo4rUpN8Qf3B6GE1nxLBRVbA51ArchFNGUNHzhD/hJt2g9OYOm2fPk5LJosgT6YLwz7XEZixFkD5XTomApNNQLfhxV2OQ1hlENUTMNaVIy51e7sfOzSKI4FGM+/u3MeWsWo6XOtDP7ydrt3EPu9uRR7opUyrkRXE4c3sCe8aWbd2vMI89c1CHPagD23yQfZ0hTAXP3Ayh1Q9t2lhwYx6BIlS/Ukv32ScADtXJE6juQgoWdnp3PyQeiglEQsZXdMvYCD/LVjCDdHMEGBGpa9GvqSH8LHxe3QKH3JF1GGjq3yQdQunnAJg1hJN6F7lnmsK5H39SsZvH8XJRFQBX/rJDxYB8QB1EuvzfcHykfdqOlAWAg16pE3dhpvCNPyI0Kp/qQNof5U5MVqderMCKZz8Jxx7CqTdhgyKZZBh7L/avCY7Hbs5flgt5kJ+w6KHJsFhridvACMd+U2quyHgFpZmzGCnAZoYrzEyXqvvh907nzrX8gvIMizqrey7FhTLrjaW0OOrMAskaMhf1DWUtFD8YOuR7zi+fT3qT89Fo8vfg6sWLT3yC7BG8hlKnBZwcia6/xyQOXJ/nDdSZ1E5HwHS0uTgXAa5XdxWq7NM/CjcZIQ+bA5mLqkK7qTmmtgfq0AUfTKGthH6z2X64iaYbAiQQGSj6BNCprKGXgpjiEoXrFFMShD2KmjMKrfDeEAPzJD8cEAx2W8nFkCku0Yh0uFY4Ro3ayzkVJvpJyzFhDY6RYRTht2VgmDJXH2JfPgyNb0+OChwdhKqEAOis0BJdOFPKhN1J9NmKtg2cnISEkVz8gUVYw/hvrNi54lryWMbFNuzRENrjyUylIh6uemPLyLsMj3Ji7T+K7XZTEkfD/qgzmXQ6Z8Pvr2RKo3c3Bji2AzvbVfUJcOoKLgySZ8/OTsxfR1DtTKnjZjYZVkLdjW7nwF/Uv5Cgbheq8Dq/uR1cDG7nwbBAwRx7UbjBxBi87kKKUnCapMTg5af1YAS6CbaPgnMK3G9AfvQjPtf1w8icqdEW+w7Qpk9HBfiVSkLDzyA6CBxn8ZvQ8fa6WyCrjH8LJrFSlbDRfxtGZAXsEq8HKRVAu0fzw+9x8o3rX68gHAwPQpsWi1RY7BaNyaEhW/+d9v5/i8/Acfe8d3g1uHm6X6y5t/nLxeykM9yibv8PELzqTNvoiHkAAAAASUVORK5CYII=;" vertex="1" parent="1">
          <mxGeometry x="271.5" y="342" width="65" height="65" as="geometry" />
        </mxCell>
      </root>
    </mxGraphModel>
  </diagram>
</mxfile>
